<?xml version="1.0" standalone="no"?>
<!DOCTYPE svg PUBLIC "-//W3C//DTD SVG 20010904//EN"
 "http://www.w3.org/TR/2001/REC-SVG-20010904/DTD/svg10.dtd">
<svg version="1.0" xmlns="http://www.w3.org/2000/svg"
 width="96.000000pt" height="96.000000pt" viewBox="0 0 96.000000 96.000000"
 preserveAspectRatio="xMidYMid meet">
<metadata>
Created by potrace 1.11, written by Peter Selinger 2001-2013
</metadata>
<g transform="translate(0.000000,96.000000) scale(0.100000,-0.100000)"
fill="#000000" stroke="none">
<path d="M0 480 l0 -480 480 0 480 0 0 480 0 480 -480 0 -480 0 0 -480z m574
232 c39 -27 57 -52 37 -52 -6 0 -30 14 -54 31 -24 17 -61 33 -83 36 -110 14
-224 -74 -224 -174 0 -15 22 -75 49 -133 58 -122 80 -199 31 -105 -17 32 -37
66 -44 75 -60 68 -75 191 -31 266 14 23 41 52 60 64 73 45 189 42 259 -8z
m256 -112 c0 -57 -4 -80 -12 -80 -7 0 -80 16 -162 35 -169 40 -173 40 -157 21
9 -11 10 -20 2 -35 -8 -15 -7 -54 4 -146 15 -120 32 -226 38 -230 1 -1 16 -7
32 -13 24 -8 0 -11 -115 -11 -130 0 -142 1 -114 13 17 8 34 24 38 37 14 50 28
331 17 342 -6 6 -11 20 -10 31 0 12 3 15 6 9 6 -15 83 -18 83 -3 0 6 -16 10
-35 10 -27 0 -35 4 -35 18 0 11 8 26 18 36 18 15 21 15 45 -4 l26 -20 148 34
c81 18 156 34 166 35 15 1 17 -9 17 -79z m-493 -118 c23 -88 10 -87 -16 2 -15
51 -20 82 -14 102 l8 29 3 -35 c1 -19 10 -63 19 -98z m313 26 c0 -27 -40 -113
-69 -148 -17 -20 -16 -13 8 40 16 36 32 80 36 98 8 36 25 43 25 10z"/>
<path d="M428 603 c7 -3 16 -2 19 1 4 3 -2 6 -13 5 -11 0 -14 -3 -6 -6z"/>
<path d="M466 478 c7 -29 14 -64 14 -77 0 -13 2 -22 5 -19 11 11 -8 148 -21
148 -10 0 -9 -11 2 -52z"/>
</g>
</svg>
