<?xml version="1.0" standalone="no"?>
<!DOCTYPE svg PUBLIC "-//W3C//DTD SVG 20010904//EN"
 "http://www.w3.org/TR/2001/REC-SVG-20010904/DTD/svg10.dtd">
<svg version="1.0" xmlns="http://www.w3.org/2000/svg"
 width="245.000000pt" height="245.000000pt" viewBox="0 0 245.000000 245.000000"
 preserveAspectRatio="xMidYMid meet">
<metadata>
Created by potrace 1.11, written by Peter Selinger 2001-2013
</metadata>
<g transform="translate(0.000000,245.000000) scale(0.100000,-0.100000)"
fill="#000000" stroke="none">
<path d="M0 1225 l0 -1225 1225 0 1225 0 0 1225 0 1225 -1225 0 -1225 0 0
-1225z m1420 721 c0 -3 -142 -6 -315 -6 -173 0 -315 2 -315 5 0 3 68 86 151
184 l151 179 164 -178 c90 -98 164 -181 164 -184z m-336 -178 c3 -57 9 -129
13 -160 l6 -58 -82 0 -81 0 0 -480 0 -480 120 0 120 0 1 -37 c0 -21 6 -107 12
-190 l13 -153 -273 0 -273 0 0 830 0 830 209 0 208 0 7 -102z m496 -58 l0
-160 -179 0 -180 0 -46 146 c-25 80 -49 152 -52 160 -4 12 29 14 226 14 l231
0 0 -160z"/>
</g>
</svg>
