<?xml version="1.0" standalone="no"?>
<!DOCTYPE svg PUBLIC "-//W3C//DTD SVG 20010904//EN"
 "http://www.w3.org/TR/2001/REC-SVG-20010904/DTD/svg10.dtd">
<svg version="1.0" xmlns="http://www.w3.org/2000/svg"
 width="150.000000pt" height="150.000000pt" viewBox="0 0 150.000000 150.000000"
 preserveAspectRatio="xMidYMid meet">
<metadata>
Created by potrace 1.11, written by Peter Selinger 2001-2013
</metadata>
<g transform="translate(0.000000,150.000000) scale(0.100000,-0.100000)"
fill="#000000" stroke="none">
<path d="M0 750 l0 -750 750 0 750 0 0 70 0 70 -320 0 c-276 0 -320 2 -328 15
-7 13 -16 14 -62 4 -87 -19 -251 -7 -339 24 -194 68 -346 241 -380 431 -38
209 14 404 145 545 106 114 252 182 425 196 156 12 330 -47 446 -153 l53 -47
-64 -70 -64 -69 -41 37 c-33 30 -128 87 -145 87 -2 0 51 -165 118 -367 l123
-368 137 -3 137 -3 80 -122 79 -122 0 673 0 672 -750 0 -750 0 0 -750z"/>
<path d="M528 1136 c-226 -79 -331 -348 -221 -572 34 -69 126 -157 200 -192
52 -24 70 -27 165 -27 58 0 110 4 114 8 7 6 -197 749 -215 784 -5 8 -15 8 -43
-1z"/>
</g>
</svg>
